<svg xmlns="http://www.w3.org/2000/svg" xmlns:xlink="http://www.w3.org/1999/xlink" viewBox="0 0 982.88 380.03"><defs><style>.cls-1{fill:none;}.cls-2{fill:#f0f0f0;}.cls-3{fill:#679afe;}.cls-4{clip-path:url(#clip-path);}</style><clipPath id="clip-path"><path class="cls-1" d="M142.24,8.95V116.19c.54.25,1.08.48,1.62.74A86,86,0,0,1,170.29,137,91.08,91.08,0,0,1,187.6,165.9a100,100,0,0,1,0,69,91,91,0,0,1-17.31,28.92,85.88,85.88,0,0,1-26.43,20.05c-.53.26-1.08.49-1.62.74v55.3H334.8V8.95Z"/></clipPath></defs><title>logo</title><g id="Layer_3" data-name="Layer 3"><path class="cls-2" d="M900.89,53.28A40,40,0,0,1,910.3,40.2a42.31,42.31,0,0,1,13.64-8.35,45.94,45.94,0,0,1,32.39,0A42.36,42.36,0,0,1,970,40.2a40.05,40.05,0,0,1,9.41,13.08,40.81,40.81,0,0,1,3.51,17.14,41.08,41.08,0,0,1-3.51,17.25,40.45,40.45,0,0,1-23,21.48,46.76,46.76,0,0,1-32.39,0,40.42,40.42,0,0,1-26.55-38.74A40.81,40.81,0,0,1,900.89,53.28Zm10.3,30.28A32.48,32.48,0,0,0,917.87,94a30,30,0,0,0,10,6.85,31.83,31.83,0,0,0,24.49,0,30,30,0,0,0,10-6.85A33.31,33.31,0,0,0,969,83.56a33.81,33.81,0,0,0,2.5-13.13A33.41,33.41,0,0,0,969,57.34,32.82,32.82,0,0,0,962.28,47a30.82,30.82,0,0,0-22.15-9.24,31,31,0,0,0-12.3,2.45,30.45,30.45,0,0,0-10,6.79,32,32,0,0,0-6.68,10.3,34.05,34.05,0,0,0-2.45,13.08A34.46,34.46,0,0,0,911.19,83.56ZM941.13,47q8.79,0,13.53,3.12t4.73,10.69a14.38,14.38,0,0,1-.95,5.51,9.81,9.81,0,0,1-2.62,3.73,11.85,11.85,0,0,1-3.9,2.23,19.49,19.49,0,0,1-4.79,1l12.47,20.37h-9.69L938.57,73.76h-5.79V93.69h-9.24V47ZM941,66.53a16.6,16.6,0,0,0,6.57-1.11q2.56-1.11,2.56-5.34a4.69,4.69,0,0,0-.89-3A6,6,0,0,0,947,55.34a11.42,11.42,0,0,0-3.12-.84,25.89,25.89,0,0,0-3.28-.22h-7.79V66.53Z"/><rect class="cls-1" x="54" y="100.74" width="133" height="226.28"/><path class="cls-3" d="M174.46,168.91a84,84,0,0,0-16.63-26.83,82.38,82.38,0,0,0-25.39-18.6,73.17,73.17,0,0,0-31.83-7,76.63,76.63,0,0,0-24.68,4.11,74.05,74.05,0,0,0-21.59,11.54V47H2v238.4H54.33V269.7a67.1,67.1,0,0,0,21.59,11.7,79.56,79.56,0,0,0,24.68,3.93,73.16,73.16,0,0,0,31.83-7,82.28,82.28,0,0,0,25.39-18.6,83.83,83.83,0,0,0,16.63-26.83,89.77,89.77,0,0,0,0-64ZM140.4,218.86a46.28,46.28,0,0,1-8.48,15,39.57,39.57,0,0,1-13.53,10.27,41.29,41.29,0,0,1-17.77,3.75,41.28,41.28,0,0,1-17.77-3.75,37.88,37.88,0,0,1-13.37-10.27,48,48,0,0,1-8.32-15,55.77,55.77,0,0,1,0-35.71,44.11,44.11,0,0,1,8.48-15A43.07,43.07,0,0,1,83,157.88,38.82,38.82,0,0,1,100.62,154,37.18,37.18,0,0,1,117.74,158a43.59,43.59,0,0,1,13.53,10.6,51.63,51.63,0,0,1,8.8,15,47.86,47.86,0,0,1,3.26,17.28A54.42,54.42,0,0,1,140.4,218.86Z"/><path class="cls-2" d="M379.11,47.66v238H331.77v-238Z"/><path class="cls-2" d="M404.77,138.67A56.73,56.73,0,0,1,423.44,121a81.38,81.38,0,0,1,25.5-9.5,145.19,145.19,0,0,1,28.5-2.83,193.72,193.72,0,0,1,26.33,1.83,80.71,80.71,0,0,1,24.33,7.17,48,48,0,0,1,18,14.83q7,9.5,7,25.17v89.67a179.68,179.68,0,0,0,1.33,22.33q1.33,10.67,4.67,16h-48a66.76,66.76,0,0,1-2.17-8.17,69.89,69.89,0,0,1-1.17-8.5,61.66,61.66,0,0,1-26.67,16.33A107.1,107.1,0,0,1,449.77,290a84.63,84.63,0,0,1-23-3,52.62,52.62,0,0,1-18.67-9.33,43.39,43.39,0,0,1-12.5-16q-4.5-9.66-4.5-23,0-14.66,5.17-24.17a43.18,43.18,0,0,1,13.33-15.17,59.81,59.81,0,0,1,18.67-8.5,201.17,201.17,0,0,1,21.17-4.5q10.66-1.66,21-2.67a126.45,126.45,0,0,0,18.33-3q8-2,12.67-5.83t4.33-11.17q0-7.66-2.5-12.17a18.4,18.4,0,0,0-6.67-7,26.26,26.26,0,0,0-9.67-3.33,79.51,79.51,0,0,0-11.83-.83q-14,0-22,6t-9.33,20H396.44Q397.44,149.67,404.77,138.67Zm93.5,66.83a76.72,76.72,0,0,1-9.67,2.5q-5.17,1-10.83,1.67t-11.33,1.67a85.71,85.71,0,0,0-10.5,2.67,31.12,31.12,0,0,0-9,4.5,21.38,21.38,0,0,0-6.17,7.17,23,23,0,0,0-2.33,11,22.24,22.24,0,0,0,2.33,10.67,17.85,17.85,0,0,0,6.33,6.83,26.71,26.71,0,0,0,9.33,3.5,59.49,59.49,0,0,0,11,1q14,0,21.67-4.67a31.24,31.24,0,0,0,11.33-11.17,35.77,35.77,0,0,0,4.5-13.17,91.25,91.25,0,0,0,.83-10.67V201.33A21.18,21.18,0,0,1,498.27,205.5Z"/><path class="cls-2" d="M611.6,242.83a27.67,27.67,0,0,0,8.17,9,35,35,0,0,0,11.5,5.17,54,54,0,0,0,13.5,1.67,50.4,50.4,0,0,0,10.5-1.17,35.67,35.67,0,0,0,10-3.67,22.7,22.7,0,0,0,7.5-6.67,17.51,17.51,0,0,0,3-10.5q0-10.66-14.17-16T622.1,210q-10.34-2.33-20.17-5.5a68.7,68.7,0,0,1-17.5-8.33,40.44,40.44,0,0,1-12.33-13q-4.67-7.83-4.67-19.17,0-16.66,6.5-27.33a47.94,47.94,0,0,1,17.17-16.83,75.26,75.26,0,0,1,24-8.67,148,148,0,0,1,27.33-2.5,136.73,136.73,0,0,1,27.17,2.67,72,72,0,0,1,23.5,9,54,54,0,0,1,17.17,16.83q6.83,10.5,8.17,26.5h-45q-1-13.66-10.33-18.5t-22-4.83a81.76,81.76,0,0,0-8.67.5,29,29,0,0,0-8.5,2.17,17.52,17.52,0,0,0-6.5,4.83,12.76,12.76,0,0,0-2.67,8.5,13,13,0,0,0,4.67,10.33,36,36,0,0,0,12.17,6.5,152.16,152.16,0,0,0,17.17,4.5q9.66,2,19.67,4.33a201.81,201.81,0,0,1,20.17,5.67,66.48,66.48,0,0,1,17.5,8.83,42.79,42.79,0,0,1,12.33,13.67q4.66,8.17,4.67,20.17,0,17-6.83,28.5a54.7,54.7,0,0,1-17.83,18.5,73.07,73.07,0,0,1-25.17,9.83A146.94,146.94,0,0,1,644.44,290a142.78,142.78,0,0,1-29.33-3,77.39,77.39,0,0,1-25.5-10,57.13,57.13,0,0,1-18.33-18.5q-7.17-11.5-7.83-28.83h45A25.92,25.92,0,0,0,611.6,242.83Z"/><path class="cls-2" d="M780.1,47.66v89.67h1q9-15,23-21.83t27.33-6.83q19,0,31.17,5.17t19.17,14.33a55.52,55.52,0,0,1,9.83,22.33,139.2,139.2,0,0,1,2.83,29.17v106H847.1V188.33q0-21.33-6.67-31.83T816.76,146q-19.34,0-28,11.5t-8.67,37.83v90.33H732.76v-238Z"/><g class="cls-4"><path class="cls-2" d="M320.78,47.23v44h-115v55h99.67v40.67H205.78v98.33H153.45v-238Z"/></g><path class="cls-3" d="M3.54,335.51H13.8c6.21,0,11,1.7,11,7.45,0,2.67-1.47,5.56-3.91,6.48v.18a6.79,6.79,0,0,1,5.38,7c0,6.12-5.15,8.83-11.64,8.83H3.54Zm9.93,12c3.31,0,4.74-1.38,4.74-3.54,0-2.35-1.52-3.22-4.69-3.22H10.3v6.76Zm.64,12.74c3.68,0,5.56-1.29,5.56-4s-1.84-3.68-5.56-3.68H10.3v7.73Z"/><path class="cls-3" d="M44.25,335.51H63v5.7H51v6H61.22v5.66H51v6.9H63.47v5.7H44.25Z"/><path class="cls-3" d="M80.4,361.73l3.86-4.64a12.16,12.16,0,0,0,7.4,3.13c2.81,0,4.19-1.1,4.19-2.9s-1.7-2.48-4.32-3.59l-3.91-1.66c-3.08-1.24-6-3.82-6-8.19,0-5,4.42-8.92,10.67-8.92a13.88,13.88,0,0,1,9.66,4l-3.45,4.28a9.71,9.71,0,0,0-6.21-2.39c-2.35,0-3.82,1-3.82,2.71s2,2.48,4.55,3.54l3.86,1.56c3.63,1.47,5.93,3.91,5.93,8.14,0,5-4.14,9.29-11.31,9.29A16.42,16.42,0,0,1,80.4,361.73Z"/><path class="cls-3" d="M120.78,335.51h10.3c6.58,0,11.91,2.39,11.91,9.66,0,7-5.38,10.16-11.73,10.16h-3.73V365.5h-6.76ZM130.85,350c3.73,0,5.52-1.66,5.52-4.78s-2-4.28-5.7-4.28h-3.13V350Z"/><path class="cls-3" d="M159.64,350.37c0-9.8,5.52-15.41,13.61-15.41s13.61,5.66,13.61,15.41-5.52,15.68-13.61,15.68S159.64,360.17,159.64,350.37Zm20.28,0c0-6-2.58-9.57-6.67-9.57s-6.67,3.59-6.67,9.57,2.58,9.84,6.67,9.84S179.92,356.39,179.92,350.37Z"/><path class="cls-3" d="M205.41,335.51h6.76v12.28h.18l8.92-12.28h7.45l-9.06,12,10.72,18H223l-7.31-12.65-3.5,4.6v8h-6.76Z"/><path class="cls-3" d="M246.52,335.51h18.76v5.7h-12v6h10.21v5.66H253.28v6.9h12.46v5.7H246.52Z"/><path class="cls-2" d="M306.68,335.51h18.76v5.7h-12v6h10.21v5.66H313.44v6.9h12.46v5.7H306.68Z"/><path class="cls-2" d="M343.34,350.69c0-9.93,6.58-15.73,14.16-15.73a12.67,12.67,0,0,1,9,3.91l-3.59,4.32a7.66,7.66,0,0,0-5.29-2.39c-4.09,0-7.36,3.63-7.36,9.66s2.85,9.75,7.27,9.75a8,8,0,0,0,5.84-2.81l3.59,4.23a12.34,12.34,0,0,1-9.7,4.42C349.69,366.05,343.34,360.76,343.34,350.69Z"/><path class="cls-2" d="M383.4,351.61v-16.1h6.81V352.3c0,5.89,1.84,7.91,5.2,7.91s5.29-2,5.29-7.91V335.51h6.53v16.1c0,10.07-4.09,14.44-11.82,14.44S383.4,361.68,383.4,351.61Z"/><path class="cls-2" d="M449.12,335.51h10.3c6.58,0,11.91,2.39,11.91,9.66,0,7-5.38,10.16-11.73,10.16h-3.73V365.5h-6.76ZM459.19,350c3.73,0,5.52-1.66,5.52-4.78s-2-4.28-5.7-4.28h-3.13V350Z"/><path class="cls-2" d="M489.41,335.51h10.81c6.35,0,11.54,2.21,11.54,9.34,0,4.42-2.12,7.22-5.33,8.65l6.81,12h-7.59l-5.75-10.81h-3.73V365.5h-6.76Zm10.26,13.8c3.54,0,5.47-1.52,5.47-4.46s-1.93-4-5.47-4h-3.5v8.42Z"/><path class="cls-2" d="M529.06,350.37c0-9.8,5.52-15.41,13.61-15.41s13.61,5.66,13.61,15.41-5.52,15.68-13.61,15.68S529.06,360.17,529.06,350.37Zm20.28,0c0-6-2.58-9.57-6.67-9.57s-6.67,3.59-6.67,9.57,2.58,9.84,6.67,9.84S549.34,356.39,549.34,350.37Z"/><path class="cls-2" d="M573.4,350.69C573.4,340.76,580,335,588,335a13,13,0,0,1,9.43,3.91l-3.54,4.32a8,8,0,0,0-5.66-2.39c-4.65,0-7.91,3.63-7.91,9.66s2.81,9.75,8.42,9.75a5.34,5.34,0,0,0,3.22-.92v-5.15h-5v-5.52H598v13.8a14.45,14.45,0,0,1-9.89,3.63C579.83,366.05,573.4,360.76,573.4,350.69Z"/><path class="cls-2" d="M617,335.51h10.81c6.35,0,11.54,2.21,11.54,9.34,0,4.42-2.12,7.22-5.33,8.65l6.81,12h-7.59l-5.75-10.81H623.8V365.5H617Zm10.26,13.8c3.54,0,5.47-1.52,5.47-4.46s-1.93-4-5.47-4h-3.5v8.42Z"/><path class="cls-2" d="M663.31,335.51h8.14l9.38,30h-7.17l-1.84-7.13h-9.15l-1.84,7.13h-6.9Zm.74,17.57h6.39l-.69-2.76c-.83-3-1.66-6.53-2.44-9.66h-.18c-.74,3.17-1.52,6.67-2.35,9.66Z"/><path class="cls-2" d="M697,335.51h7.4l4.83,13.34c.6,1.75,1.15,3.68,1.75,5.52h.18c.6-1.84,1.1-3.77,1.7-5.52l4.74-13.34h7.36v30h-6.16v-11c0-2.94.55-7.31.87-10.21h-.18L717,351.43l-4.28,11.45H709l-4.28-11.45-2.39-7.13h-.18c.32,2.9.87,7.27.87,10.21v11H697Z"/><path class="cls-2" d="M744.9,335.51h7.4l4.83,13.34c.6,1.75,1.15,3.68,1.75,5.52h.18c.6-1.84,1.1-3.77,1.7-5.52l4.74-13.34h7.36v30H766.7v-11c0-2.94.55-7.31.87-10.21h-.18L765,351.43l-4.28,11.45H757l-4.28-11.45-2.39-7.13h-.18c.32,2.9.87,7.27.87,10.21v11H744.9Z"/><path class="cls-2" d="M792.83,335.51h6.76v30h-6.76Z"/><path class="cls-2" d="M819.55,335.51h6.94l7.82,14.9,2.94,6.62h.18c-.28-3.17-.83-7.4-.83-10.95V335.51h6.44v30h-6.94l-7.82-14.95L825.35,344h-.18c.28,3.31.83,7.31.83,10.85V365.5h-6.44Z"/><path class="cls-2" d="M861.59,350.69c0-9.93,6.62-15.73,14.63-15.73a12.94,12.94,0,0,1,9.43,3.91l-3.54,4.32a8,8,0,0,0-5.66-2.39c-4.65,0-7.91,3.63-7.91,9.66s2.81,9.75,8.42,9.75a5.34,5.34,0,0,0,3.22-.92v-5.15h-5v-5.52h10.95v13.8a14.45,14.45,0,0,1-9.89,3.63C868,366.05,861.59,360.76,861.59,350.69Z"/></g></svg>